# xmcd
#
# Track frame offsets: 
#        150
#        20638
#        40319
#        62608
#        79311
#        93461
#        109360
#        128373
#        159565
#        181569
#        209939
#
# Disc length: 3870 seconds
#
# Revision: 2
# Processed by: cddbd v1.5.2PL0 Copyright (c) Steve Scherf et al.
# Submitted via: ExactAudioCopy v0.99pb4
#
DISCID=930f1c0b
DTITLE=Jay McShann - Still Jumpin' The Blues
DYEAR=1900
DGENRE=Blues
TTITLE0=Goin' To Chicago
TTITLE1=Moten Swing
TTITLE2=Sunny Side Of The Street
TTITLE3=Ain't Nobody's Business
TTITLE4=Come On Over To My House
TTITLE5=Trouble In Mind
TTITLE6=Say Forward, I'll March
TTITLE7=Backwater blues
TTITLE8=She's Got It
TTITLE9=Hootie's K.C. Christmas Prayer
TTITLE10=Interview with Jay McShann
EXTD=
EXTT0=
EXTT1=
EXTT2=
EXTT3=
EXTT4=
EXTT5=
EXTT6=
EXTT7=
EXTT8=
EXTT9=
EXTT10=
PLAYORDER=
